<svg xmlns="http://www.w3.org/2000/svg" viewBox="0 0 600 846" width="600" height="846">
  <rect width="600" height="846" fill="#FFFDF7"/>
  <rect x="30" y="20" width="540" height="806" rx="2" fill="none" stroke="#d4c5a0" stroke-width="1"/>
  <text x="300" y="65" text-anchor="middle" font-size="20" fill="#c0392b" font-weight="bold" font-family="serif">XX大学附属医院</text>
  <line x1="50" y1="80" x2="550" y2="80" stroke="#c0392b" stroke-width="1.5"/>
  <text x="300" y="115" text-anchor="middle" font-size="18" fill="#1a1a2e" font-weight="bold">CT检查报告</text>
  <line x1="50" y1="130" x2="550" y2="130" stroke="#e0d5b8" stroke-width="0.5"/>
  <text x="60" y="155" font-size="12" fill="#888">科 室：影像科</text>
  <text x="300" y="155" font-size="12" fill="#888">日 期：2022年7月11日</text>
  <line x1="50" y1="170" x2="550" y2="170" stroke="#e0d5b8" stroke-width="0.5"/>
  <text x="60" y="210" font-size="13" fill="#888">姓 名：</text><text x="180" y="210" font-size="14" fill="#333">欧阳*健</text>
<text x="60" y="236" font-size="13" fill="#888">性 别：</text><text x="180" y="236" font-size="14" fill="#333">女</text><text x="340" y="236" font-size="13" fill="#888">年 龄：</text><text x="440" y="236" font-size="14" fill="#333">47岁</text>
<text x="60" y="262" font-size="13" fill="#888">检查部位：</text><text x="180" y="262" font-size="14" fill="#333">胸部CT平扫+增强</text>
<line x1="50" y1="280" x2="550" y2="280" stroke="#ccc" stroke-width="0.5"/>
<text x="60" y="300" font-size="15" fill="#1a1a2e" font-weight="bold">CT所见</text>
<text x="60" y="330" font-size="14" fill="#333">左乳外上象限见一不规则高密度影，大小约2.3×1.7cm，</text>
<text x="60" y="358" font-size="14" fill="#333">增强扫描明显强化，边缘毛糙，可见毛刺征。</text>
<text x="60" y="386" font-size="14" fill="#333"></text>
<text x="60" y="414" font-size="14" fill="#333">左腋窝见数个增大淋巴结，较大者短径约0.9cm，</text>
<text x="60" y="442" font-size="14" fill="#333">增强后均匀强化。</text>
<text x="60" y="470" font-size="14" fill="#333"></text>
<text x="60" y="498" font-size="14" fill="#333">双肺野未见明确异常高密度影。纵隔内未见肿大</text>
<text x="60" y="526" font-size="14" fill="#333">淋巴结。心脏大小形态正常。</text>
<text x="60" y="554" font-size="14" fill="#333"></text>
<text x="60" y="582" font-size="14" fill="#333">胸椎骨质未见明确破坏征象。</text>
<line x1="50" y1="602" x2="550" y2="602" stroke="#ccc" stroke-width="0.5"/>
<text x="60" y="622" font-size="15" fill="#1a1a2e" font-weight="bold">CT诊断</text>
<text x="60" y="652" font-size="14" fill="#333">1. 左乳占位性病变，结合病史考虑乳腺癌</text>
<text x="60" y="680" font-size="14" fill="#333">2. 左腋窝淋巴结肿大，考虑转移</text>
<text x="60" y="708" font-size="14" fill="#333">3. 双肺未见明确转移灶</text>

  <line x1="50" y1="756" x2="550" y2="756" stroke="#e0d5b8" stroke-width="0.5"/>
  <text x="380" y="781" font-size="13" fill="#888">报告医师：</text>
  <text x="455" y="781" font-size="14" fill="#333">刘建平</text>
  <text x="380" y="804" font-size="13" fill="#888">审核医师：</text>
  <text x="455" y="804" font-size="14" fill="#333">李建国</text>
</svg>