<svg xmlns="http://www.w3.org/2000/svg" viewBox="0 0 600 928" width="600" height="928">
  <rect width="600" height="928" fill="#FFFDF7"/>
  <rect x="30" y="20" width="540" height="888" rx="2" fill="none" stroke="#d4c5a0" stroke-width="1"/>
  <text x="300" y="65" text-anchor="middle" font-size="20" fill="#c0392b" font-weight="bold" font-family="serif">XX大学附属医院</text>
  <line x1="50" y1="80" x2="550" y2="80" stroke="#c0392b" stroke-width="1.5"/>
  <text x="300" y="115" text-anchor="middle" font-size="18" fill="#1a1a2e" font-weight="bold">出院小结</text>
  <line x1="50" y1="130" x2="550" y2="130" stroke="#e0d5b8" stroke-width="0.5"/>
  <text x="60" y="155" font-size="12" fill="#888">科 室：乳腺外科</text>
  <text x="300" y="155" font-size="12" fill="#888">日 期：2022年7月10日</text>
  <line x1="50" y1="170" x2="550" y2="170" stroke="#e0d5b8" stroke-width="0.5"/>
  <text x="60" y="210" font-size="13" fill="#888">姓 名：</text><text x="180" y="210" font-size="14" fill="#333">欧阳*健</text>
<text x="60" y="236" font-size="13" fill="#888">性 别：</text><text x="180" y="236" font-size="14" fill="#333">女</text><text x="340" y="236" font-size="13" fill="#888">年 龄：</text><text x="440" y="236" font-size="14" fill="#333">47岁</text>
<text x="60" y="262" font-size="13" fill="#888">入院日期：</text><text x="180" y="262" font-size="14" fill="#333">2022年7月11日</text>
<text x="60" y="288" font-size="13" fill="#888">出院日期：</text><text x="180" y="288" font-size="14" fill="#333">2022年7月10日</text>
<line x1="50" y1="306" x2="550" y2="306" stroke="#ccc" stroke-width="0.5"/>
<text x="60" y="326" font-size="15" fill="#1a1a2e" font-weight="bold">入院诊断</text>
<text x="60" y="356" font-size="14" fill="#333">左乳浸润性导管癌 cT2N1M0 IIB期</text>
<line x1="50" y1="376" x2="550" y2="376" stroke="#ccc" stroke-width="0.5"/>
<text x="60" y="396" font-size="15" fill="#1a1a2e" font-weight="bold">出院诊断</text>
<text x="60" y="426" font-size="14" fill="#333">左乳浸润性导管癌 pT1cN1M0 IIA期</text>
<text x="60" y="454" font-size="14" fill="#333">ER(+) PR(+) HER2(2+/FISH扩增) Ki-67 30%</text>
<line x1="50" y1="474" x2="550" y2="474" stroke="#ccc" stroke-width="0.5"/>
<text x="60" y="494" font-size="15" fill="#1a1a2e" font-weight="bold">治疗经过</text>
<text x="60" y="524" font-size="14" fill="#333">入院后完善各项检查，排除手术禁忌后于7月11日在</text>
<text x="60" y="552" font-size="14" fill="#333">全麻下行左乳保乳术+前哨淋巴结活检+腋窝淋巴结</text>
<text x="60" y="580" font-size="14" fill="#333">清扫术。术后病理示浸润性导管癌，切缘阴性，</text>
<text x="60" y="608" font-size="14" fill="#333">前哨淋巴结1/3(+)，腋窝淋巴结1/15(+)。</text>
<text x="60" y="636" font-size="14" fill="#333">术后恢复良好，切口愈合佳。</text>
<line x1="50" y1="656" x2="550" y2="656" stroke="#ccc" stroke-width="0.5"/>
<text x="60" y="676" font-size="15" fill="#1a1a2e" font-weight="bold">出院医嘱</text>
<text x="60" y="706" font-size="14" fill="#333">1. 术后2周门诊拆线</text>
<text x="60" y="734" font-size="14" fill="#333">2. 拔除引流管后开始功能锻炼</text>
<text x="60" y="762" font-size="14" fill="#333">3. 术后4周开始辅助化疗（AC-TH方案）</text>
<text x="60" y="790" font-size="14" fill="#333">4. 定期复查：每3个月一次</text>

  <line x1="50" y1="838" x2="550" y2="838" stroke="#e0d5b8" stroke-width="0.5"/>
  <text x="380" y="863" font-size="13" fill="#888">报告医师：</text>
  <text x="455" y="863" font-size="14" fill="#333">王晓明</text>
  <text x="380" y="886" font-size="13" fill="#888">审核医师：</text>
  <text x="455" y="886" font-size="14" fill="#333">李建国</text>
</svg>